# xmcd
#
# Track frame offsets:
#	150
#	16997
#	32520
#	49680
#	67112
#	84352
#	97967
#	112090
#	130855
#
# Disc length: 1949 seconds
#
# Revision: 1
# Processed by: cddbd v1.5.2PL0 Copyright (c) Steve Scherf et al.
# Submitted via: audiograbber 1.83.01
#
DISCID=6d079b09
DTITLE=Various Artist - CDX 72 December 1993
DYEAR=1993
DGENRE=Country
TTITLE0=k.d. lang - Curious Soul Astray
TTITLE1=Sammy Kershaw - I Can't Reach Her Anymore
TTITLE2=Lee Roy Parnell - i'm Holding My Own
TTITLE3=Neal McCoy - No Doubt About It
TTITLE4=No Sense In Lovin' - Uncle Tupelo
TTITLE5=Bellamy Brothers - Not
TTITLE6=Wayne Warner - Something 'Bout You
TTITLE7=Joe Diffie - White Lightnin'
TTITLE8=Pam Perry And Connie Smith - One Good Man
EXTD=
EXTT0=
EXTT1=
EXTT2=
EXTT3=
EXTT4=
EXTT5=
EXTT6=
EXTT7=
EXTT8=
PLAYORDER=
